<svg width="228.7386962890625px" height="113.62753906249999px" xmlns="http://www.w3.org/2000/svg" viewBox="135.63065185546876 18.186230468750004 228.7386962890625 113.62753906249999" style="background:#051103" preserveAspectRatio="xMidYMid"><defs><linearGradient id="editing-glowing-gradient" x1="0.8146601955249185" x2="0.18533980447508147" y1="0.8885729807284856" y2="0.11142701927151444"><stop offset="0" stop-color="#67ff43"></stop><stop offset="1" stop-color="#90ffff"></stop></linearGradient><filter id="editing-glowing" x="-100%" y="-100%" width="300%" height="300%"><feGaussianBlur in="SourceGraphic" result="blur" stdDeviation="6"></feGaussianBlur><feMerge><feMergeNode in="blur"></feMergeNode><feMergeNode in="SourceGraphic"></feMergeNode></feMerge></filter></defs><g filter="url(#editing-glowing)"><g transform="translate(175.61028838157654, 94.61181831359863)"><path d="M14.89-26.95L14.89-26.95L14.89-26.95Q15.53-26.86 15.97-26.81L15.97-26.81L15.97-26.81Q16.41-26.76 16.77-26.73L16.77-26.73L16.77-26.73Q17.14-26.71 17.53-26.73L17.53-26.73L17.53-26.73Q17.92-26.76 18.51-26.86L18.51-26.86L18.51-26.86Q19.58-27.00 20.43-27.12L20.43-27.12L20.43-27.12Q21.29-27.25 22.31-27.34L22.31-27.34L22.31-27.34Q22.61-27.39 22.92-27.34L22.92-27.34L22.92-27.34Q23.24-27.29 23.54-27.29L23.54-27.29L23.54-27.29Q24.17-27.29 24.78-27.34L24.78-27.34L24.78-27.34Q25.39-27.39 25.93-27.44L25.93-27.44L25.93-27.44Q26.12-27.49 26.27-27.54L26.27-27.54L26.27-27.54Q26.42-27.59 26.56-27.54L26.56-27.54L26.56-27.54Q27.00-27.54 27.44-27.56L27.44-27.56L27.44-27.56Q27.88-27.59 28.22-27.25L28.22-27.25L28.22-27.25Q28.37-26.76 28.32-26.71L28.32-26.71L28.32-26.71Q28.27-26.66 28.22-26.56L28.22-26.56L28.22-26.56Q28.17-25.93 28.05-25.93L28.05-25.93L28.05-25.93Q27.93-25.93 27.93-25.83L27.93-25.83L27.93-25.83Q27.54-25.73 27.27-25.66L27.27-25.66L27.27-25.66Q27.00-25.59 26.86-25.34L26.86-25.34L26.86-25.34Q26.03-25.15 25.32-25.27L25.32-25.27L25.32-25.27Q24.61-25.39 23.88-25.05L23.88-25.05L23.88-25.05Q23.54-24.90 23.17-24.68L23.17-24.68L23.17-24.68Q22.80-24.46 22.27-24.66L22.27-24.66L22.27-24.66Q21.78-24.66 21.14-24.61L21.14-24.61L21.14-24.61Q20.51-24.56 19.92-24.51L19.92-24.51L19.92-24.51Q18.80-24.41 17.99-24.34L17.99-24.34L17.99-24.34Q17.19-24.27 16.46-24.24L16.46-24.24L16.46-24.24Q15.72-24.22 14.97-24.17L14.97-24.17L14.97-24.17Q14.21-24.12 13.13-24.12L13.13-24.12L13.13-24.12Q12.74-23.78 12.62-23.29L12.62-23.29L12.62-23.29Q12.50-22.80 12.11-22.51L12.11-22.51L12.11-22.51Q11.72-21.58 11.47-21.26L11.47-21.26L11.47-21.26Q11.23-20.95 11.13-20.51L11.13-20.51L11.13-20.51Q10.45-19.63 9.89-18.68L9.89-18.68L9.89-18.68Q9.33-17.72 8.59-16.89L8.59-16.89L8.59-16.89Q8.50-16.36 8.23-15.94L8.23-15.94L8.23-15.94Q7.96-15.53 7.86-14.84L7.86-14.84L7.86-14.84Q7.32-14.11 7.08-13.23L7.08-13.23L7.08-13.23Q6.84-12.35 6.45-11.38L6.45-11.38L6.45-11.38Q6.35-10.99 6.23-10.62L6.23-10.62L6.23-10.62Q6.10-10.25 5.96-9.86L5.96-9.86L5.96-9.86Q5.76-9.38 5.49-8.96L5.49-8.96L5.49-8.96Q5.22-8.54 4.98-8.06L4.98-8.06L4.98-8.06Q4.88-7.96 4.88-7.79L4.88-7.79L4.88-7.79Q4.88-7.62 4.83-7.52L4.83-7.52L4.83-7.52Q4.69-7.18 4.54-6.91L4.54-6.91L4.54-6.91Q4.39-6.64 4.30-6.40L4.30-6.40L4.30-6.40Q4.20-6.15 4.17-5.88L4.17-5.88L4.17-5.88Q4.15-5.62 4.05-5.37L4.05-5.37L4.05-5.37Q4.00-5.22 3.96-5.10L3.96-5.10L3.96-5.10Q3.91-4.98 3.86-4.83L3.86-4.83L3.86-4.83Q3.71-4.15 3.86-3.91L3.86-3.91L3.86-3.91Q4.00-3.66 4.10-3.42L4.10-3.42L4.10-3.42Q4.20-3.13 4.30-2.91L4.30-2.91L4.30-2.91Q4.39-2.69 4.44-2.44L4.44-2.44L4.44-2.44Q4.69-2.34 4.91-2.25L4.91-2.25L4.91-2.25Q5.13-2.15 5.37-2.15L5.37-2.15L5.37-2.15Q5.66-2.10 6.01-2.42L6.01-2.42L6.01-2.42Q6.35-2.73 6.59-2.78L6.59-2.78L6.59-2.78Q6.93-2.88 7.25-2.88L7.25-2.88L7.25-2.88Q7.57-2.88 7.81-3.03L7.81-3.03L7.81-3.03Q8.11-3.27 8.30-3.52L8.30-3.52L8.30-3.52Q8.50-3.76 8.84-3.86L8.84-3.86L8.84-3.86Q9.62-4.05 9.67-4.17L9.67-4.17L9.67-4.17Q9.72-4.30 10.01-4.54L10.01-4.54L10.01-4.54Q10.35-4.79 10.62-5.00L10.62-5.00L10.62-5.00Q10.89-5.22 11.28-5.47L11.28-5.47L11.28-5.47Q11.77-5.71 11.84-5.76L11.84-5.76L11.84-5.76Q11.91-5.81 12.26-6.10L12.26-6.10L12.26-6.10Q12.74-6.35 13.09-6.64L13.09-6.64L13.09-6.64Q13.43-6.93 13.87-7.18L13.87-7.18L13.87-7.18Q14.36-7.37 14.45-7.45L14.45-7.45L14.45-7.45Q14.55-7.52 14.58-7.57L14.58-7.57L14.58-7.57Q14.60-7.62 14.67-7.71L14.67-7.71L14.67-7.71Q14.75-7.81 15.14-8.06L15.14-8.06L15.14-8.06Q15.33-8.45 15.58-8.69L15.58-8.69L15.58-8.69Q15.82-8.94 16.16-9.33L16.16-9.33L16.16-9.33Q16.46-9.67 16.77-9.91L16.77-9.91L16.77-9.91Q17.09-10.16 17.33-10.40L17.33-10.40L17.33-10.40Q17.48-10.50 17.58-10.62L17.58-10.62L17.58-10.62Q17.68-10.74 17.92-10.79L17.92-10.79L17.92-10.79Q18.21-11.04 18.38-11.21L18.38-11.21L18.38-11.21Q18.55-11.38 18.95-11.72L18.95-11.72L18.95-11.72Q19.04-11.82 19.19-11.96L19.19-11.96L19.19-11.96Q19.34-12.11 19.43-12.16L19.43-12.16L19.43-12.16Q19.63-12.16 19.75-12.01L19.75-12.01L19.75-12.01Q19.87-11.87 20.07-11.87L20.07-11.87L20.07-11.87Q20.02-11.23 20.02-11.06L20.02-11.06L20.02-11.06Q20.02-10.89 19.92-10.69L19.92-10.69L19.92-10.69Q19.63-10.25 19.26-10.21L19.26-10.21L19.26-10.21Q18.90-10.16 18.70-9.67L18.70-9.67L18.70-9.67Q18.55-9.77 18.33-9.72L18.33-9.72L18.33-9.72Q18.12-9.67 18.02-9.57L18.02-9.57L18.02-9.57Q18.12-9.38 18.12-9.23L18.12-9.23L18.12-9.23Q18.12-9.08 18.16-8.89L18.16-8.89L18.16-8.89Q17.29-8.01 16.99-7.47L16.99-7.47L16.99-7.47Q16.41-6.84 16.36-6.76L16.36-6.76L16.36-6.76Q16.31-6.69 16.31-6.69L16.31-6.69L16.31-6.69Q16.31-6.69 16.26-6.64L16.26-6.64L16.26-6.64Q16.21-6.59 15.92-6.30L15.92-6.30L15.92-6.30Q15.23-5.76 14.89-5.27L14.89-5.27L14.89-5.27Q14.55-4.79 13.87-4.39L13.87-4.39L13.87-4.39Q13.33-4.00 13.13-3.81L13.13-3.81L13.13-3.81Q12.94-3.61 12.55-3.27L12.55-3.27L12.55-3.27Q12.35-3.08 12.18-2.86L12.18-2.86L12.18-2.86Q12.01-2.64 11.77-2.44L11.77-2.44L11.77-2.44Q11.43-2.20 11.11-2.00L11.11-2.00L11.11-2.00Q10.79-1.81 10.55-1.51L10.55-1.51L10.55-1.51Q9.81-1.17 9.50-0.73L9.50-0.73L9.50-0.73Q9.18-0.29 8.54 0.10L8.54 0.10L8.54 0.10Q8.11 0.39 7.35 0.83L7.35 0.83L7.35 0.83Q6.59 1.27 6.05 1.46L6.05 1.46L6.05 1.46Q5.91 1.51 5.79 1.56L5.79 1.56L5.79 1.56Q5.66 1.61 5.52 1.66L5.52 1.66L5.52 1.66Q5.13 1.42 4.76 1.17L4.76 1.17L4.76 1.17Q4.39 0.93 4.15 0.49L4.15 0.49L4.15 0.49Q3.71 0.15 3.44 0L3.44 0L3.44 0Q3.17-0.15 2.93-0.39L2.93-0.39L2.93-0.39Q2.44-1.22 1.83-2.05L1.83-2.05L1.83-2.05Q1.22-2.88 0.88-3.91L0.88-3.91L0.88-3.91Q0.78-4.10 0.76-4.32L0.76-4.32L0.76-4.32Q0.73-4.54 0.68-4.79L0.68-4.79L0.68-4.79Q0.59-5.18 0.49-5.47L0.49-5.47L0.49-5.47Q0.39-5.76 0.44-6.20L0.44-6.20L0.44-6.20Q0.44-6.49 0.54-6.84L0.54-6.84L0.54-6.84Q0.63-7.18 0.73-7.57L0.73-7.57L0.73-7.57Q0.93-8.20 1.20-8.79L1.20-8.79L1.20-8.79Q1.46-9.38 1.61-10.06L1.61-10.06L1.61-10.06Q1.76-10.60 1.90-11.04L1.90-11.04L1.90-11.04Q2.05-11.47 2.25-12.01L2.25-12.01L2.25-12.01Q2.34-12.26 2.37-12.48L2.37-12.48L2.37-12.48Q2.39-12.70 2.64-12.79L2.64-12.79L2.64-12.79Q2.83-13.77 3.27-14.67L3.27-14.67L3.27-14.67Q3.71-15.58 4.15-16.41L4.15-16.41L4.15-16.41Q4.69-17.43 5.15-18.51L5.15-18.51L5.15-18.51Q5.62-19.58 6.15-20.61L6.15-20.61L6.15-20.61Q6.20-21.19 6.54-21.58L6.54-21.58L6.54-21.58Q6.59-22.12 6.93-22.63L6.93-22.63L6.93-22.63Q7.28-23.14 7.42-23.68L7.42-23.68L7.42-23.68Q6.88-23.83 6.23-23.71L6.23-23.71L6.23-23.71Q5.57-23.58 5.08-23.49L5.08-23.49L5.08-23.49Q4.20-23.44 3.22-23.49L3.22-23.49L3.22-23.49Q2.88-23.54 2.56-23.61L2.56-23.61L2.56-23.61Q2.25-23.68 1.95-23.68L1.95-23.68L1.95-23.68Q1.51-23.63 1.29-23.75L1.29-23.75L1.29-23.75Q1.07-23.88 0.83-23.78L0.83-23.78L0.83-23.78Q0.20-24.32-0.10-24.51L-0.10-24.51L-0.10-24.51Q-0.39-24.71-0.66-24.88L-0.66-24.88L-0.66-24.88Q-0.93-25.05-1.15-25.27L-1.15-25.27L-1.15-25.27Q-1.37-25.49-1.51-25.93L-1.51-25.93L-1.51-25.93Q-1.51-26.07-1.37-26.17L-1.37-26.17L-1.37-26.17Q-1.22-26.27-1.12-26.37L-1.12-26.37L-1.12-26.37Q-0.73-26.46-0.24-26.44L-0.24-26.44L-0.24-26.44Q0.24-26.42 0.54-26.61L0.54-26.61L0.54-26.61Q1.32-26.51 1.98-26.71L1.98-26.71L1.98-26.71Q2.64-26.90 3.37-26.86L3.37-26.86L3.37-26.86Q3.52-26.86 3.66-26.81L3.66-26.81L3.66-26.81Q3.81-26.76 3.96-26.76L3.96-26.76L3.96-26.76Q4.20-26.71 4.37-26.76L4.37-26.76L4.37-26.76Q4.54-26.81 4.79-26.86L4.79-26.86L4.79-26.86Q5.08-26.90 5.42-26.86L5.42-26.86L5.42-26.86Q5.76-26.81 6.10-26.86L6.10-26.86L6.10-26.86Q6.74-26.90 7.64-26.73L7.64-26.73L7.64-26.73Q8.54-26.56 9.23-26.81L9.23-26.81L9.23-26.81Q9.47-27.49 9.79-28.20L9.79-28.20L9.79-28.20Q10.11-28.91 10.30-29.59L10.30-29.59L10.30-29.59Q10.50-29.88 10.69-30.25L10.69-30.25L10.69-30.25Q10.89-30.62 10.99-30.96L10.99-30.96L10.99-30.96Q11.28-31.45 11.45-31.74L11.45-31.74L11.45-31.74Q11.62-32.03 11.87-32.32L11.87-32.32L11.87-32.32Q12.21-33.01 12.38-33.67L12.38-33.67L12.38-33.67Q12.55-34.33 12.84-35.11L12.84-35.11L12.84-35.11Q13.48-35.79 14.11-36.77L14.11-36.77L14.11-36.77Q14.45-36.72 14.67-36.96L14.67-36.96L14.67-36.96Q14.89-37.21 15.33-36.91L15.33-36.91L15.33-36.91Q15.33-36.77 15.45-36.65L15.45-36.65L15.45-36.65Q15.58-36.52 15.48-36.28L15.48-36.28L15.48-36.28Q15.72-36.04 15.87-35.84L15.87-35.84L15.87-35.84Q16.02-35.64 16.11-35.40L16.11-35.40L16.11-35.40Q16.21-35.01 16.04-34.50L16.04-34.50L16.04-34.50Q15.87-33.98 16.11-33.54L16.11-33.54L16.11-33.54Q16.21-33.30 16.16-33.08L16.16-33.08L16.16-33.08Q16.11-32.86 16.21-32.67L16.21-32.67L16.21-32.67Q16.31-32.42 16.48-32.18L16.48-32.18L16.48-32.18Q16.65-31.93 16.65-31.54L16.65-31.54L16.65-31.54Q16.65-31.40 16.58-31.18L16.58-31.18L16.58-31.18Q16.50-30.96 16.41-30.71L16.41-30.71L16.41-30.71Q16.21-29.98 16.11-29.69L16.11-29.69L16.11-29.69Q16.02-29.39 15.92-29.05L15.92-29.05L15.92-29.05Q15.58-28.66 15.58-28.54L15.58-28.54L15.58-28.54Q15.58-28.42 15.53-28.32L15.53-28.32L15.53-28.32Q15.38-28.03 15.21-27.61L15.21-27.61L15.21-27.61Q15.04-27.20 14.89-26.95ZM27.10-0.34L26.81-1.42L26.81-1.42Q26.51-2.05 26.71-3.32L26.71-3.32L26.71-3.32Q26.81-3.86 26.88-4.17L26.88-4.17L26.88-4.17Q26.95-4.49 27.05-5.27L27.05-5.27L27.05-5.27Q27.15-6.01 27.32-6.79L27.32-6.79L27.32-6.79Q27.49-7.57 27.59-8.35L27.59-8.35L27.59-8.35Q26.86-7.23 26.22-5.98L26.22-5.98L26.22-5.98Q25.59-4.74 24.71-3.91L24.71-3.91L24.71-3.91Q24.56-3.47 24.37-3.30L24.37-3.30L24.37-3.30Q24.17-3.13 23.95-3.00L23.95-3.00L23.95-3.00Q23.73-2.88 23.51-2.73L23.51-2.73L23.51-2.73Q23.29-2.59 23.14-2.15L23.14-2.15L23.14-2.15Q22.90-1.90 22.68-1.64L22.68-1.64L22.68-1.64Q22.46-1.37 22.36-0.98L22.36-0.98L22.36-0.98Q22.12-0.88 21.88-0.59L21.88-0.59L21.88-0.59Q21.44-0.15 21.29-0.10L21.29-0.10L21.29-0.10Q21.14-0.05 21.04 0.05L21.04 0.05L21.04 0.05Q20.56 0.44 20.19 0.63L20.19 0.63L20.19 0.63Q19.82 0.83 19.34 0.88L19.34 0.88L19.34 0.88Q18.80 0.98 17.94 1.03L17.94 1.03L17.94 1.03Q17.09 1.07 16.60 1.12L16.60 1.12L16.60 1.12Q16.26 0.88 16.11 0.83L16.11 0.83L16.11 0.83Q15.97 0.78 15.58 0.63L15.58 0.63L15.58 0.63Q14.94 0.39 14.89 0.37L14.89 0.37L14.89 0.37Q14.84 0.34 14.65 0.24L14.65 0.24L14.65 0.24Q14.26-0.05 14.11-0.22L14.11-0.22L14.11-0.22Q13.96-0.39 13.77-0.59L13.77-0.59L13.77-0.59Q12.94-1.86 12.84-3.81L12.84-3.81L12.84-3.81Q12.79-4.49 13.09-5.18L13.09-5.18L13.09-5.18Q13.38-5.86 13.62-6.40L13.62-6.40L13.62-6.40Q13.87-6.93 14.26-7.52L14.26-7.52L14.26-7.52Q14.65-8.11 14.89-8.59L14.89-8.59L14.89-8.59Q15.04-8.89 15.04-9.06L15.04-9.06L15.04-9.06Q15.04-9.23 14.99-9.38L14.99-9.38L14.99-9.38Q14.94-9.52 14.94-9.67L14.94-9.67L14.94-9.67Q14.94-9.81 15.09-10.11L15.09-10.11L15.09-10.11Q15.19-10.45 15.38-10.79L15.38-10.79L15.38-10.79Q15.58-11.13 15.82-11.57L15.82-11.57L15.82-11.57Q16.31-12.40 16.75-12.96L16.75-12.96L16.75-12.96Q17.19-13.53 17.48-14.40L17.48-14.40L17.48-14.40Q17.72-15.09 18.14-15.45L18.14-15.45L18.14-15.45Q18.55-15.82 19.14-16.11L19.14-16.11L19.14-16.11Q19.38-16.02 19.85-16.19L19.85-16.19L19.85-16.19Q20.31-16.36 20.56-16.55L20.56-16.55L20.56-16.55Q20.90-16.55 21.09-16.75L21.09-16.75L21.09-16.75Q21.63-16.85 21.66-16.75L21.66-16.75L21.66-16.75Q21.68-16.65 21.78-16.65L21.78-16.65L21.78-16.65Q21.88-16.60 22.05-16.65L22.05-16.65L22.05-16.65Q22.22-16.70 22.31-16.65L22.31-16.65L22.31-16.65Q22.46-16.16 22.56-16.02L22.56-16.02L22.56-16.02Q22.66-15.87 22.66-15.77L22.66-15.77L22.66-15.77Q22.66-15.63 22.63-15.38L22.63-15.38L22.63-15.38Q22.61-15.14 22.56-15.04L22.56-15.04L22.56-15.04Q22.27-14.65 22.24-14.58L22.24-14.58L22.24-14.58Q22.22-14.50 22.17-14.40L22.17-14.40L22.17-14.40Q21.88-14.01 21.44-13.35L21.44-13.35L21.44-13.35Q21.00-12.70 20.65-12.21L20.65-12.21L20.65-12.21Q20.41-11.82 20.17-11.67L20.17-11.67L20.17-11.67Q19.92-11.52 19.73-11.13L19.73-11.13L19.73-11.13Q19.63-10.94 19.58-10.77L19.58-10.77L19.58-10.77Q19.53-10.60 19.43-10.40L19.43-10.40L19.43-10.40Q18.90-9.28 18.16-8.03L18.16-8.03L18.16-8.03Q17.43-6.79 16.85-5.66L16.85-5.66L16.85-5.66Q16.80-5.27 16.67-4.91L16.67-4.91L16.67-4.91Q16.55-4.54 16.55-4.20L16.55-4.20L16.55-4.20Q16.55-4.15 16.53-3.93L16.53-3.93L16.53-3.93Q16.50-3.71 16.50-3.44L16.50-3.44L16.50-3.44Q16.50-3.17 16.50-2.93L16.50-2.93L16.50-2.93Q16.50-2.69 16.55-2.64L16.55-2.64L16.55-2.64Q16.85-2.25 16.89-2.27L16.89-2.27L16.89-2.27Q16.94-2.29 16.99-2.25L16.99-2.25L16.99-2.25Q17.19-1.76 17.26-1.68L17.26-1.68L17.26-1.68Q17.33-1.61 17.58-1.51L17.58-1.51L17.58-1.51Q17.77-1.46 18.14-1.59L18.14-1.59L18.14-1.59Q18.51-1.71 18.70-1.81L18.70-1.81L18.70-1.81Q19.29-2.10 19.58-2.42L19.58-2.42L19.58-2.42Q19.87-2.73 20.17-3.08L20.17-3.08L20.17-3.08Q20.41-3.37 20.85-3.96L20.85-3.96L20.85-3.96Q21.29-4.54 21.73-5.15L21.73-5.15L21.73-5.15Q22.17-5.76 22.61-6.32L22.61-6.32L22.61-6.32Q23.05-6.88 23.29-7.18L23.29-7.18L23.29-7.18Q23.58-7.81 24.00-8.35L24.00-8.35L24.00-8.35Q24.41-8.89 24.71-9.47L24.71-9.47L24.71-9.47Q25.10-10.25 25.39-10.79L25.39-10.79L25.39-10.79Q25.68-11.33 26.07-12.06L26.07-12.06L26.07-12.06Q26.37-12.45 26.68-12.82L26.68-12.82L26.68-12.82Q27.00-13.18 27.15-13.82L27.15-13.82L27.15-13.82Q27.25-14.16 27.51-14.48L27.51-14.48L27.51-14.48Q27.78-14.79 27.93-15.04L27.93-15.04L27.93-15.04Q28.27-15.33 28.39-15.58L28.39-15.58L28.39-15.58Q28.52-15.82 28.71-15.92L28.71-15.92L28.71-15.92Q29.25-16.06 29.54-16.14L29.54-16.14L29.54-16.14Q29.83-16.21 30.27-16.11L30.27-16.11L30.27-16.11Q30.66-16.36 31.10-16.36L31.10-16.36L31.10-16.36Q31.54-16.36 31.93-16.31L31.93-16.31L31.93-16.31Q31.93-16.06 32.06-15.99L32.06-15.99L32.06-15.99Q32.18-15.92 32.18-15.72L32.18-15.72L32.18-15.72Q32.37-15.28 32.18-14.65L32.18-14.65L32.18-14.65Q31.98-14.01 31.93-13.38L31.93-13.38L31.93-13.38Q31.84-12.89 31.57-12.48L31.57-12.48L31.57-12.48Q31.30-12.06 31.15-11.52L31.15-11.52L31.15-11.52Q30.96-10.79 30.91-10.64L30.91-10.64L30.91-10.64Q30.86-10.50 30.76-10.11L30.76-10.11L30.76-10.11Q30.57-9.23 30.37-8.47L30.37-8.47L30.37-8.47Q30.18-7.71 30.08-6.74L30.08-6.74L30.08-6.74Q30.08-6.49 30.00-6.23L30.00-6.23L30.00-6.23Q29.93-5.96 29.93-5.76L29.93-5.76L29.93-5.76Q29.93-5.52 29.96-5.18L29.96-5.18L29.96-5.18Q29.98-4.83 30.22-4.74L30.22-4.74L30.22-4.74Q30.52-4.64 30.69-4.79L30.69-4.79L30.69-4.79Q30.86-4.93 31.20-5.13L31.20-5.13L31.20-5.13Q31.45-5.32 31.69-5.57L31.69-5.57L31.69-5.57Q31.93-5.81 32.18-6.01L32.18-6.01L32.18-6.01Q32.42-6.25 32.71-6.40L32.71-6.40L32.71-6.40Q33.01-6.54 33.25-6.79L33.25-6.79L33.25-6.79Q34.03-7.47 34.74-8.20L34.74-8.20L34.74-8.20Q35.45-8.94 36.28-9.42L36.28-9.42L36.28-9.42Q37.06-10.25 37.87-10.96L37.87-10.96L37.87-10.96Q38.67-11.67 39.70-12.16L39.70-12.16L39.70-12.16Q40.09-11.52 39.89-11.11L39.89-11.11L39.89-11.11Q39.70-10.69 39.40-10.30L39.40-10.30L39.40-10.30Q39.31-10.21 39.06-10.06L39.06-10.06L39.06-10.06Q38.82-9.91 38.67-9.81L38.67-9.81L38.67-9.81Q38.57-9.72 38.43-9.57L38.43-9.57L38.43-9.57Q38.28-9.42 38.18-9.42L38.18-9.42L38.18-9.42Q38.18-9.23 38.06-9.11L38.06-9.11L38.06-9.11Q37.94-8.98 37.84-8.89L37.84-8.89L37.84-8.89Q37.21-7.91 36.43-7.15L36.43-7.15L36.43-7.15Q35.64-6.40 34.91-5.62L34.91-5.62L34.91-5.62Q34.57-5.52 34.50-5.30L34.50-5.30L34.50-5.30Q34.42-5.08 34.18-4.88L34.18-4.88L34.18-4.88Q33.98-4.64 33.79-4.47L33.79-4.47L33.79-4.47Q33.59-4.30 33.40-4.05L33.40-4.05L33.40-4.05Q33.11-3.71 32.89-3.39L32.89-3.39L32.89-3.39Q32.67-3.08 32.28-2.78L32.28-2.78L32.28-2.78Q32.03-2.54 31.91-2.27L31.91-2.27L31.91-2.27Q31.79-2.00 31.54-1.76L31.54-1.76L31.54-1.76Q31.15-1.37 30.98-1.39L30.98-1.39L30.98-1.39Q30.81-1.42 30.71-0.93L30.71-0.93L30.71-0.93Q30.32-0.63 30.27-0.51L30.27-0.51L30.27-0.51Q30.22-0.39 30.13-0.44L30.13-0.44L30.13-0.44Q30.03-0.39 29.79-0.37L29.79-0.37L29.79-0.37Q29.54-0.34 29.54-0.24L29.54-0.24L29.54-0.24Q29.20-0.10 29.03 0.05L29.03 0.05L29.03 0.05Q28.86 0.20 28.56 0.24L28.56 0.24L28.56 0.24Q27.93 0.34 27.66 0.17L27.66 0.17L27.66 0.17Q27.39 0 27.10-0.34L27.10-0.34ZM38.82-3.71L38.82-3.71L38.82-3.71Q39.94-4.69 40.89-5.83L40.89-5.83L40.89-5.83Q41.85-6.98 42.97-8.15L42.97-8.15L42.97-8.15Q43.21-8.40 43.46-8.74L43.46-8.74L43.46-8.74Q43.70-9.08 43.95-9.47L43.95-9.47L43.95-9.47Q44.14-9.77 44.43-10.03L44.43-10.03L44.43-10.03Q44.73-10.30 44.92-10.55L44.92-10.55L44.92-10.55Q45.07-10.79 45.29-10.94L45.29-10.94L45.29-10.94Q45.51-11.08 45.75-11.28L45.75-11.28L45.75-11.28Q46.00-11.52 46.19-11.69L46.19-11.69L46.19-11.69Q46.39-11.87 46.63-12.06L46.63-12.06L46.63-12.06Q47.07-12.40 47.46-12.77L47.46-12.77L47.46-12.77Q47.85-13.13 48.39-13.38L48.39-13.38L48.39-13.38Q48.68-13.43 48.83-13.60L48.83-13.60L48.83-13.60Q48.97-13.77 49.17-13.96L49.17-13.96L49.17-13.96Q49.41-13.92 49.61-14.01L49.61-14.01L49.61-14.01Q49.80-14.11 50.05-14.21L50.05-14.21L50.05-14.21Q50.73-14.06 51.15-13.67L51.15-13.67L51.15-13.67Q51.56-13.28 51.95-12.89L51.95-12.89L51.95-12.89Q52.29-12.74 52.49-12.62L52.49-12.62L52.49-12.62Q52.69-12.50 52.88-12.35L52.88-12.35L52.88-12.35Q53.08-11.96 53.22-11.62L53.22-11.62L53.22-11.62Q53.37-11.28 53.37-10.84L53.37-10.84L53.37-10.84Q53.37-10.55 53.32-10.25L53.32-10.25L53.32-10.25Q53.27-9.96 53.22-9.67L53.22-9.67L53.22-9.67Q53.03-9.08 53.08-9.03L53.08-9.03L53.08-9.03Q53.13-8.98 53.13-8.89L53.13-8.89L53.13-8.89Q53.17-8.50 52.86-8.08L52.86-8.08L52.86-8.08Q52.54-7.67 52.69-7.23L52.69-7.23L52.69-7.23Q52.73-7.08 52.56-6.49L52.56-6.49L52.56-6.49Q52.39-5.91 52.44-5.76L52.44-5.76L52.44-5.76Q52.54-5.47 52.54-5.00L52.54-5.00L52.54-5.00Q52.54-4.54 52.78-4.35L52.78-4.35L52.78-4.35Q53.27-4.15 53.47-4.15L53.47-4.15L53.47-4.15Q53.66-4.15 53.81-4.15L53.81-4.15L53.81-4.15Q54.39-4.44 55.27-5.15L55.27-5.15L55.27-5.15Q56.15-5.86 56.59-6.35L56.59-6.35L56.59-6.35Q57.08-6.74 57.47-7.10L57.47-7.10L57.47-7.10Q57.86-7.47 58.54-7.81L58.54-7.81L58.54-7.81Q59.13-8.20 59.33-8.42L59.33-8.42L59.33-8.42Q59.52-8.64 59.96-9.13L59.96-9.13L59.96-9.13Q60.11-9.28 60.33-9.42L60.33-9.42L60.33-9.42Q60.55-9.57 60.74-9.77L60.74-9.77L60.74-9.77Q60.89-9.91 61.13-10.08L61.13-10.08L61.13-10.08Q61.38-10.25 61.52-10.30L61.52-10.30L61.52-10.30Q61.72-10.30 62.08-10.30L62.08-10.30L62.08-10.30Q62.45-10.30 62.55-10.11L62.55-10.11L62.55-10.11Q62.65-9.72 62.55-9.42L62.55-9.42L62.55-9.42Q62.45-9.13 62.30-8.89L62.30-8.89L62.30-8.89Q62.11-8.59 61.87-8.35L61.87-8.35L61.87-8.35Q61.67-8.01 61.43-7.71L61.43-7.71L61.43-7.71Q61.18-7.47 60.89-7.15L60.89-7.15L60.89-7.15Q60.60-6.84 60.21-6.64L60.21-6.64L60.21-6.64Q59.96-6.35 59.74-6.13L59.74-6.13L59.74-6.13Q59.52-5.91 59.28-5.66L59.28-5.66L59.28-5.66Q59.03-5.42 58.84-5.13L58.84-5.13L58.84-5.13Q58.64-4.83 58.40-4.59L58.40-4.59L58.40-4.59Q57.86-4.15 57.35-3.74L57.35-3.74L57.35-3.74Q56.84-3.32 56.40-2.78L56.40-2.78L56.40-2.78Q56.15-2.69 56.01-2.56L56.01-2.56L56.01-2.56Q55.86-2.44 55.66-2.34L55.66-2.34L55.66-2.34Q55.18-2.20 54.74-1.86L54.74-1.86L54.74-1.86Q54.30-1.51 53.83-1.15L53.83-1.15L53.83-1.15Q53.37-0.78 52.88-0.49L52.88-0.49L52.88-0.49Q52.39-0.20 51.81-0.24L51.81-0.24L51.81-0.24Q51.27 0 50.88-0.22L50.88-0.22L50.88-0.22Q50.49-0.44 50.10-0.68L50.10-0.68L50.10-0.68Q49.56-1.03 49.07-1.46L49.07-1.46L49.07-1.46Q48.58-1.90 48.49-2.69L48.49-2.69L48.49-2.69Q48.39-3.96 48.78-5.08L48.78-5.08L48.78-5.08Q49.17-6.20 49.37-7.32L49.37-7.32L49.37-7.32Q49.37-7.42 49.44-7.69L49.44-7.69L49.44-7.69Q49.51-7.96 49.54-8.28L49.54-8.28L49.54-8.28Q49.56-8.59 49.58-8.86L49.58-8.86L49.58-8.86Q49.61-9.13 49.56-9.23L49.56-9.23L49.56-9.23Q49.46-9.33 49.44-9.57L49.44-9.57L49.44-9.57Q49.41-9.81 49.02-10.06L49.02-10.06L49.02-10.06Q48.78-10.21 48.83-10.11L48.83-10.11L48.83-10.11Q48.88-10.01 48.44-10.01L48.44-10.01L48.44-10.01Q48.05-9.86 47.75-9.62L47.75-9.62L47.75-9.62Q47.46-9.38 47.12-9.13L47.12-9.13L47.12-9.13Q46.63-8.59 46.02-8.15L46.02-8.15L46.02-8.15Q45.41-7.71 44.97-7.13L44.97-7.13L44.97-7.13Q44.58-6.69 44.24-6.25L44.24-6.25L44.24-6.25Q43.90-5.81 43.46-5.37L43.46-5.37L43.46-5.37Q42.82-4.64 42.14-3.91L42.14-3.91L42.14-3.91Q41.46-3.17 40.77-2.49L40.77-2.49L40.77-2.49Q40.43-2.10 40.14-1.71L40.14-1.71L40.14-1.71Q39.84-1.32 39.50-0.93L39.50-0.93L39.50-0.93Q38.92-0.20 38.23 0.49L38.23 0.49L38.23 0.49Q37.94 0.98 37.40 1.42L37.40 1.42L37.40 1.42Q36.87 1.86 36.33 2.05L36.33 2.05L36.33 2.05Q36.18 1.95 36.01 2.05L36.01 2.05L36.01 2.05Q35.84 2.15 35.69 2.15L35.69 2.15L35.69 2.15Q35.11 1.90 35.01 1.88L35.01 1.88L35.01 1.88Q34.91 1.86 34.86 1.66L34.86 1.66L34.86 1.66Q34.38 1.37 34.50 0.71L34.50 0.71L34.50 0.71Q34.62 0.05 34.72-0.44L34.72-0.44L34.72-0.44Q35.21-2.64 36.06-4.81L36.06-4.81L36.06-4.81Q36.91-6.98 37.40-9.08L37.40-9.08L37.40-9.08Q37.65-9.91 37.89-10.62L37.89-10.62L37.89-10.62Q38.13-11.33 38.48-12.11L38.48-12.11L38.48-12.11Q38.82-12.79 38.94-13.50L38.94-13.50L38.94-13.50Q39.06-14.21 39.40-14.89L39.40-14.89L39.40-14.89Q39.60-15.23 39.75-15.63L39.75-15.63L39.75-15.63Q39.89-16.02 40.04-16.36L40.04-16.36L40.04-16.36Q40.58-17.33 41.06-18.77L41.06-18.77L41.06-18.77Q41.55-20.21 42.09-21.34L42.09-21.34L42.09-21.34Q42.68-22.90 43.31-24.37L43.31-24.37L43.31-24.37Q43.95-25.83 44.73-27.25L44.73-27.25L44.73-27.25Q44.97-28.22 45.34-29.08L45.34-29.08L45.34-29.08Q45.70-29.93 46.24-30.76L46.24-30.76L46.24-30.76Q46.73-31.40 46.90-31.79L46.90-31.79L46.90-31.79Q47.07-32.18 47.31-32.52L47.31-32.52L47.31-32.52Q47.90-33.20 48.63-33.62L48.63-33.62L48.63-33.62Q49.37-34.03 49.90-34.72L49.90-34.72L49.90-34.72Q50.29-34.91 50.66-35.01L50.66-35.01L50.66-35.01Q51.03-35.11 51.37-35.25L51.37-35.25L51.37-35.25Q51.46-35.16 51.49-34.99L51.49-34.99L51.49-34.99Q51.51-34.81 51.51-34.67L51.51-34.67L51.51-34.67Q51.61-34.67 51.56-34.38L51.56-34.38L51.56-34.38Q51.51-34.08 51.56-33.89L51.56-33.89L51.56-33.89Q51.56-33.15 51.44-32.91L51.44-32.91L51.44-32.91Q51.32-32.67 51.22-32.37L51.22-32.37L51.22-32.37Q51.17-32.08 51.17-31.86L51.17-31.86L51.17-31.86Q51.17-31.64 51.12-31.45L51.12-31.45L51.12-31.45Q50.98-31.01 51.00-30.93L51.00-30.93L51.00-30.93Q51.03-30.86 51.03-30.76L51.03-30.76L51.03-30.76Q51.03-30.57 50.98-30.32L50.98-30.32L50.98-30.32Q50.93-30.08 50.93-29.83L50.93-29.83L50.93-29.83Q50.88-29.30 50.66-28.71L50.66-28.71L50.66-28.71Q50.44-28.13 50.29-27.64L50.29-27.64L50.29-27.64Q50-27.29 49.95-27.10L49.95-27.10L49.95-27.10Q49.90-26.90 49.76-26.86L49.76-26.86L49.76-26.86Q49.46-26.03 49.22-25.24L49.22-25.24L49.22-25.24Q48.97-24.46 48.49-23.78L48.49-23.78L48.49-23.78Q48.29-23.24 47.97-22.73L47.97-22.73L47.97-22.73Q47.66-22.22 47.41-21.73L47.41-21.73L47.41-21.73Q47.31-21.48 47.19-21.26L47.19-21.26L47.19-21.26Q47.07-21.04 46.97-20.80L46.97-20.80L46.97-20.80Q46.63-20.17 46.26-19.51L46.26-19.51L46.26-19.51Q45.90-18.85 45.41-18.31L45.41-18.31L45.41-18.31Q44.53-16.46 43.55-14.58L43.55-14.58L43.55-14.58Q42.58-12.70 41.65-10.94L41.65-10.94L41.65-10.94Q41.31-10.40 41.16-10.01L41.16-10.01L41.16-10.01Q41.02-9.67 40.99-9.40L40.99-9.40L40.99-9.40Q40.97-9.13 40.72-8.89L40.72-8.89L40.72-8.89Q40.58-8.45 40.45-8.06L40.45-8.06L40.45-8.06Q40.33-7.67 40.09-7.32L40.09-7.32L40.09-7.32Q39.89-6.30 39.48-5.49L39.48-5.49L39.48-5.49Q39.06-4.69 38.82-3.71ZM70.36-24.46L70.85-24.32L70.85-24.32Q70.95-24.17 70.95-24.02L70.95-24.02L70.95-24.02Q70.95-23.88 71.09-23.78L71.09-23.78L71.09-23.78Q71.00-23.34 70.92-22.88L70.92-22.88L70.92-22.88Q70.85-22.41 70.85-21.97L70.85-21.97L70.85-21.97Q70.85-21.78 70.97-21.63L70.97-21.63L70.97-21.63Q71.09-21.48 71.09-21.34L71.09-21.34L71.09-21.34Q70.85-20.75 70.73-20.65L70.73-20.65L70.73-20.65Q70.61-20.56 70.61-20.41L70.61-20.41L70.61-20.41Q70.36-20.31 70.24-20.12L70.24-20.12L70.24-20.12Q70.12-19.92 69.82-19.92L69.82-19.92L69.82-19.92Q69.73-19.78 69.60-19.70L69.60-19.70L69.60-19.70Q69.48-19.63 69.43-19.43L69.43-19.43L69.43-19.43Q68.65-19.09 67.68-19.48L67.68-19.48L67.68-19.48Q67.43-19.92 66.99-20.12L66.99-20.12L66.99-20.12Q66.36-21.04 66.94-22.31L66.94-22.31L66.94-22.31Q67.04-22.56 67.16-22.83L67.16-22.83L67.16-22.83Q67.29-23.10 67.38-23.19L67.38-23.19L67.38-23.19Q67.92-23.58 68.16-23.68L68.16-23.68L68.16-23.68Q68.36-23.78 68.58-23.93L68.58-23.93L68.58-23.93Q68.80-24.07 69.09-24.17L69.09-24.17L69.09-24.17Q69.19-24.22 69.36-24.22L69.36-24.22L69.36-24.22Q69.53-24.22 69.73-24.32L69.73-24.32L69.73-24.32Q69.92-24.37 70.07-24.41L70.07-24.41L70.07-24.41Q70.21-24.46 70.36-24.46L70.36-24.46ZM63.04-2.83L63.28-2.73L63.28-2.73Q63.72-2.93 64.36-2.88L64.36-2.88L64.36-2.88Q64.99-2.83 65.38-3.08L65.38-3.08L65.38-3.08Q65.58-3.22 65.72-3.37L65.72-3.37L65.72-3.37Q65.87-3.52 66.06-3.47L66.06-3.47L66.06-3.47Q66.85-3.76 67.38-4.05L67.38-4.05L67.38-4.05Q67.92-4.35 68.55-4.49L68.55-4.49L68.55-4.49Q68.70-4.54 68.92-4.69L68.92-4.69L68.92-4.69Q69.14-4.83 69.24-4.93L69.24-4.93L69.24-4.93Q70.02-5.18 70.36-5.42L70.36-5.42L70.36-5.42Q70.70-5.66 71.02-5.91L71.02-5.91L71.02-5.91Q71.34-6.15 71.66-6.42L71.66-6.42L71.66-6.42Q71.97-6.69 72.46-7.08L72.46-7.08L72.46-7.08Q73.14-7.47 73.61-7.76L73.61-7.76L73.61-7.76Q74.07-8.06 74.61-8.50L74.61-8.50L74.61-8.50Q74.71-8.74 74.88-8.86L74.88-8.86L74.88-8.86Q75.05-8.98 75.15-9.18L75.15-9.18L75.15-9.18Q76.03-9.18 76.12-8.50L76.12-8.50L76.12-8.50Q75.88-7.96 75.46-7.62L75.46-7.62L75.46-7.62Q75.05-7.28 74.71-6.84L74.71-6.84L74.71-6.84Q74.32-6.59 74.07-6.40L74.07-6.40L74.07-6.40Q73.83-6.20 73.58-5.81L73.58-5.81L73.58-5.81Q73.54-5.81 73.29-5.59L73.29-5.59L73.29-5.59Q73.05-5.37 73.00-5.37L73.00-5.37L73.00-5.37Q72.71-5.03 72.58-4.93L72.58-4.93L72.58-4.93Q72.46-4.83 72.39-4.81L72.39-4.81L72.39-4.81Q72.31-4.79 72.19-4.69L72.19-4.69L72.19-4.69Q72.07-4.59 71.73-4.30L71.73-4.30L71.73-4.30Q71.39-3.76 70.85-3.42L70.85-3.42L70.85-3.42Q69.82-2.44 68.63-1.73L68.63-1.73L68.63-1.73Q67.43-1.03 66.46-0.34L66.46-0.34L66.46-0.34Q66.26-0.24 66.11-0.07L66.11-0.07L66.11-0.07Q65.97 0.10 65.77 0.24L65.77 0.24L65.77 0.24Q65.53 0.44 65.01 0.63L65.01 0.63L65.01 0.63Q64.50 0.83 64.11 0.98L64.11 0.98L64.11 0.98Q63.82 1.17 63.57 1.27L63.57 1.27L63.57 1.27Q62.50 1.32 61.91 0.93L61.91 0.93L61.91 0.93Q61.28 0.59 60.94 0.39L60.94 0.39L60.94 0.39Q60.60 0.20 60.35-0.24L60.35-0.24L60.35-0.24Q59.81-0.49 59.69-1.15L59.69-1.15L59.69-1.15Q59.57-1.81 59.42-2.44L59.42-2.44L59.42-2.44Q59.38-2.69 59.33-3.00L59.33-3.00L59.33-3.00Q59.28-3.32 59.33-3.66L59.33-3.66L59.33-3.66Q59.42-4.20 59.47-4.81L59.47-4.81L59.47-4.81Q59.52-5.42 59.72-5.86L59.72-5.86L59.72-5.86Q59.96-6.40 59.99-6.93L59.99-6.93L59.99-6.93Q60.01-7.47 60.25-8.01L60.25-8.01L60.25-8.01Q60.55-8.50 60.52-8.54L60.52-8.54L60.52-8.54Q60.50-8.59 60.55-8.69L60.55-8.69L60.55-8.69Q60.64-8.84 60.77-8.98L60.77-8.98L60.77-8.98Q60.89-9.13 60.99-9.33L60.99-9.33L61.28-10.06L61.28-10.06Q61.47-10.40 61.72-10.74L61.72-10.74L61.72-10.74Q61.96-11.08 62.11-11.57L62.11-11.57L62.11-11.57Q62.21-11.87 62.38-12.11L62.38-12.11L62.38-12.11Q62.55-12.35 62.74-12.65L62.74-12.65L62.74-12.65Q62.89-12.94 62.99-13.26L62.99-13.26L62.99-13.26Q63.09-13.57 63.23-13.92L63.23-13.92L63.23-13.92Q63.38-14.31 63.60-14.70L63.60-14.70L63.60-14.70Q63.82-15.09 64.06-15.48L64.06-15.48L64.06-15.48Q64.26-15.87 64.40-16.06L64.40-16.06L64.40-16.06Q64.55-16.26 64.99-16.31L64.99-16.31L64.99-16.31Q65.19-16.36 65.43-16.28L65.43-16.28L65.43-16.28Q65.67-16.21 65.92-16.31L65.92-16.31L65.92-16.31Q66.55-16.60 66.80-16.60L66.80-16.60L66.80-16.60Q67.04-16.60 67.14-16.75L67.14-16.75L67.14-16.75Q67.68-16.70 67.92-16.41L67.92-16.41L67.92-16.41Q68.16-16.11 68.51-15.82L68.51-15.82L68.51-15.82Q68.21-14.40 67.85-13.65L67.85-13.65L67.85-13.65Q67.48-12.89 67.04-12.06L67.04-12.06L67.04-12.06Q66.80-11.67 66.55-11.18L66.55-11.18L66.55-11.18Q66.31-10.69 66.11-10.30L66.11-10.30L66.11-10.30Q65.87-9.77 65.60-9.35L65.60-9.35L65.60-9.35Q65.33-8.94 65.14-8.40L65.14-8.40L65.14-8.40Q65.04-8.15 64.92-7.93L64.92-7.93L64.92-7.93Q64.79-7.71 64.70-7.47L64.70-7.47L64.70-7.47Q64.60-7.13 64.43-6.86L64.43-6.86L64.43-6.86Q64.26-6.59 64.11-6.35L64.11-6.35L64.11-6.35Q63.96-6.05 63.82-5.76L63.82-5.76L63.82-5.76Q63.67-5.47 63.57-5.13L63.57-5.13L63.57-5.13Q63.33-4.54 63.28-4.42L63.28-4.42L63.28-4.42Q63.23-4.30 63.18-4.20L63.18-4.20L63.18-4.20Q63.09-3.66 62.89-3.32L62.89-3.32L62.89-3.32Q62.70-2.98 63.04-2.83L63.04-2.83ZM76.51-6.01L76.51-6.01L76.51-6.01Q76.90-6.25 77.15-6.64L77.15-6.64L77.15-6.64Q77.39-7.03 77.73-7.42L77.73-7.42L77.73-7.42Q78.37-8.15 79.10-8.64L79.10-8.64L79.10-8.64Q79.44-9.13 79.96-9.40L79.96-9.40L79.96-9.40Q80.47-9.67 80.76-10.21L80.76-10.21L80.76-10.21Q80.86-10.35 80.93-10.50L80.93-10.50L80.93-10.50Q81.01-10.64 81.10-10.79L81.10-10.79L81.10-10.79Q81.98-12.01 83.11-12.94L83.11-12.94L83.11-12.94Q83.40-13.18 83.67-13.43L83.67-13.43L83.67-13.43Q83.94-13.67 84.33-13.92L84.33-13.92L84.33-13.92Q84.77-14.16 85.18-14.55L85.18-14.55L85.18-14.55Q85.60-14.94 86.08-15.14L86.08-15.14L86.08-15.14Q86.43-15.28 86.72-15.36L86.72-15.36L86.72-15.36Q87.01-15.43 87.35-15.53L87.35-15.53L87.35-15.53Q87.70-15.63 87.96-15.70L87.96-15.70L87.96-15.70Q88.23-15.77 88.57-15.67L88.57-15.67L88.57-15.67Q89.36-15.33 89.75-14.36L89.75-14.36L89.75-14.36Q89.84-14.11 89.67-13.31L89.67-13.31L89.67-13.31Q89.50-12.50 89.23-11.55L89.23-11.55L89.23-11.55Q88.96-10.60 88.67-9.72L88.67-9.72L88.67-9.72Q88.38-8.84 88.28-8.45L88.28-8.45L88.28-8.45Q88.18-8.06 88.23-8.03L88.23-8.03L88.23-8.03Q88.28-8.01 88.28-7.91L88.28-7.91L88.28-7.91Q88.18-7.67 88.13-7.47L88.13-7.47L88.13-7.47Q88.09-7.28 88.04-7.03L88.04-7.03L88.04-7.03Q87.94-6.64 87.89-5.98L87.89-5.98L87.89-5.98Q87.84-5.32 87.94-4.93L87.94-4.93L87.94-4.93Q88.48-4.98 88.50-5.03L88.50-5.03L88.50-5.03Q88.53-5.08 88.62-5.08L88.62-5.08L88.62-5.08Q88.77-5.13 88.94-5.10L88.94-5.10L88.94-5.10Q89.11-5.08 89.26-5.13L89.26-5.13L89.26-5.13Q89.79-5.27 90.23-5.54L90.23-5.54L90.23-5.54Q90.67-5.81 91.06-6.20L91.06-6.20L91.06-6.20Q91.94-6.59 92.68-6.98L92.68-6.98L92.68-6.98Q93.36-7.47 93.77-7.69L93.77-7.69L93.77-7.69Q94.19-7.91 95.02-8.30L95.02-8.30L95.02-8.30Q95.31-8.64 95.87-8.91L95.87-8.91L95.87-8.91Q96.44-9.18 96.83-9.52L96.83-9.52L96.83-9.52Q96.92-9.62 97.07-9.79L97.07-9.79L97.07-9.79Q97.22-9.96 97.36-9.86L97.36-9.86L97.36-9.86Q97.61-9.62 97.68-9.35L97.68-9.35L97.68-9.35Q97.75-9.08 97.71-8.98L97.71-8.98L97.71-8.98Q97.31-8.59 97.29-8.40L97.29-8.40L97.29-8.40Q97.27-8.20 97.17-8.11L97.17-8.11L97.17-8.11Q96.92-7.86 96.44-7.67L96.44-7.67L96.44-7.67Q96.00-7.47 95.92-7.35L95.92-7.35L95.92-7.35Q95.85-7.23 95.75-7.13L95.75-7.13L95.75-7.13Q95.65-7.03 95.48-6.91L95.48-6.91L95.48-6.91Q95.31-6.79 95.21-6.69L95.21-6.69L95.21-6.69Q95.12-6.54 94.95-6.52L94.95-6.52L94.95-6.52Q94.78-6.49 94.63-6.45L94.63-6.45L94.63-6.45Q94.34-6.20 94.14-6.01L94.14-6.01L94.14-6.01Q93.95-5.81 93.70-5.57L93.70-5.57L93.70-5.57Q93.31-5.18 93.21-5.00L93.21-5.00L93.21-5.00Q93.12-4.83 92.68-4.54L92.68-4.54L92.68-4.54Q92.43-4.39 92.19-4.25L92.19-4.25L92.19-4.25Q91.94-4.10 91.70-3.96L91.70-3.96L91.70-3.96Q91.02-3.61 90.33-3.13L90.33-3.13L90.33-3.13Q89.65-2.64 88.96-2.15L88.96-2.15L88.96-2.15Q88.48-1.86 87.96-1.64L87.96-1.64L87.96-1.64Q87.45-1.42 87.01-1.12L87.01-1.12L87.01-1.12Q86.82-1.12 86.74-1.15L86.74-1.15L86.74-1.15Q86.67-1.17 86.47-1.07L86.47-1.07L86.47-1.07Q86.23-1.22 85.99-1.10L85.99-1.10L85.99-1.10Q85.74-0.98 85.50-1.07L85.50-1.07L85.50-1.07Q85.01-1.46 84.84-1.56L84.84-1.56L84.84-1.56Q84.67-1.66 84.57-1.81L84.57-1.81L84.57-1.81Q84.47-2.05 84.50-2.34L84.50-2.34L84.50-2.34Q84.52-2.64 84.38-2.83L84.38-2.83L84.38-2.83Q84.38-3.91 84.45-4.88L84.45-4.88L84.45-4.88Q84.52-5.86 84.77-6.93L84.77-6.93L84.77-6.93Q84.81-7.28 84.96-7.89L84.96-7.89L84.96-7.89Q85.11-8.50 85.21-9.08L85.21-9.08L85.21-9.08Q85.30-9.67 85.35-10.11L85.35-10.11L85.35-10.11Q85.40-10.55 85.25-10.64L85.25-10.64L85.25-10.64Q84.72-10.35 84.16-9.77L84.16-9.77L84.16-9.77Q83.59-9.18 83.11-8.79L83.11-8.79L83.11-8.79Q82.71-8.50 82.35-8.25L82.35-8.25L82.35-8.25Q81.98-8.01 81.59-7.71L81.59-7.71L81.59-7.71Q81.25-7.47 81.01-7.23L81.01-7.23L81.01-7.23Q80.76-6.98 80.47-6.64L80.47-6.64L80.47-6.64Q80.13-6.30 79.83-5.98L79.83-5.98L79.83-5.98Q79.54-5.66 79.15-5.37L79.15-5.37L79.15-5.37Q78.96-5.18 78.78-5.05L78.78-5.05L78.78-5.05Q78.61-4.93 78.47-4.79L78.47-4.79L78.47-4.79Q78.22-4.54 78.00-4.32L78.00-4.32L78.00-4.32Q77.78-4.10 77.44-3.96L77.44-3.96L77.44-3.96Q77.15-3.56 76.68-3.08L76.68-3.08L76.68-3.08Q76.22-2.59 75.76-2.03L75.76-2.03L75.76-2.03Q75.29-1.46 74.85-0.93L74.85-0.93L74.85-0.93Q74.41-0.39 74.17 0.05L74.17 0.05L74.17 0.05Q73.58 0.54 72.92 0.90L72.92 0.90L72.92 0.90Q72.27 1.27 71.34 0.98L71.34 0.98L71.34 0.98Q70.85 0.68 70.70 0.49L70.70 0.49L70.70 0.49Q70.56 0.29 70.36 0.20L70.36 0.20L70.36 0.20Q70.41-0.34 70.46-0.83L70.46-0.83L70.46-0.83Q70.51-1.32 70.75-1.86L70.75-1.86L70.75-1.86Q70.80-1.95 70.87-2.08L70.87-2.08L70.87-2.08Q70.95-2.20 71.04-2.34L71.04-2.34L71.04-2.34Q71.29-2.78 71.36-3.32L71.36-3.32L71.36-3.32Q71.44-3.86 71.68-4.35L71.68-4.35L71.68-4.35Q71.97-4.83 72.05-5.15L72.05-5.15L72.05-5.15Q72.12-5.47 72.27-5.71L72.27-5.71L72.27-5.71Q72.36-5.96 72.53-6.18L72.53-6.18L72.53-6.18Q72.71-6.40 72.80-6.64L72.80-6.64L72.80-6.64Q72.90-6.88 73.14-7.20L73.14-7.20L73.14-7.20Q73.39-7.52 73.49-7.76L73.49-7.76L73.49-7.76Q73.63-8.30 73.83-8.84L73.83-8.84L73.83-8.84Q74.02-9.38 74.27-9.91L74.27-9.91L74.27-9.91Q74.37-10.25 74.46-10.57L74.46-10.57L74.46-10.57Q74.56-10.89 74.71-11.18L74.71-11.18L74.71-11.18Q74.95-11.72 75.20-12.23L75.20-12.23L75.20-12.23Q75.44-12.74 75.68-13.28L75.68-13.28L75.68-13.28Q75.83-13.57 75.95-13.79L75.95-13.79L75.95-13.79Q76.07-14.01 76.27-14.26L76.27-14.26L76.27-14.26Q76.42-14.50 76.54-14.75L76.54-14.75L76.54-14.75Q76.66-14.99 76.81-15.23L76.81-15.23L76.81-15.23Q76.95-15.48 77.08-15.80L77.08-15.80L77.08-15.80Q77.20-16.11 77.44-16.41L77.44-16.41L77.44-16.41Q77.78-16.80 77.98-17.14L77.98-17.14L77.98-17.14Q78.17-17.48 78.61-17.58L78.61-17.58L78.61-17.58Q78.81-17.48 79.03-17.58L79.03-17.58L79.03-17.58Q79.25-17.68 79.47-17.75L79.47-17.75L79.47-17.75Q79.69-17.82 79.88-17.85L79.88-17.85L79.88-17.85Q80.08-17.87 80.22-17.68L80.22-17.68L80.22-17.68Q80.86-17.29 81.15-16.99L81.15-16.99L81.15-16.99Q81.45-16.70 81.54-16.46L81.54-16.46L81.54-16.46Q81.79-16.02 81.59-15.55L81.59-15.55L81.59-15.55Q81.40-15.09 80.91-14.75L80.91-14.75L80.91-14.75Q80.71-13.92 80.22-13.18L80.22-13.18L80.22-13.18Q79.74-12.45 79.35-11.77L79.35-11.77L79.35-11.77Q79.25-11.52 79.15-11.28L79.15-11.28L79.15-11.28Q79.05-11.04 78.96-10.79L78.96-10.79L78.96-10.79Q78.66-10.11 78.34-9.42L78.34-9.42L78.34-9.42Q78.03-8.74 77.64-8.11L77.64-8.11L77.64-8.11Q77.44-7.71 77.29-7.47L77.29-7.47L77.29-7.47Q77.15-7.23 77.00-7.06L77.00-7.06L77.00-7.06Q76.86-6.88 76.76-6.64L76.76-6.64L76.76-6.64Q76.66-6.40 76.51-6.01ZM110.74-4.20L110.74-4.20L110.74-4.20Q111.13-4.20 111.23-4.15L111.23-4.15L111.23-4.15Q111.33-4.10 111.47-4.10L111.47-4.10L111.47-4.10Q111.67-4.10 112.04-4.32L112.04-4.32L112.04-4.32Q112.40-4.54 112.77-4.83L112.77-4.83L112.77-4.83Q113.13-5.13 113.45-5.42L113.45-5.42L113.45-5.42Q113.77-5.71 113.96-5.86L113.96-5.86L113.96-5.86Q114.40-5.96 114.84-6.35L114.84-6.35L114.84-6.35Q115.28-6.74 115.67-7.23L115.67-7.23L115.67-7.23Q116.06-7.71 116.38-8.20L116.38-8.20L116.38-8.20Q116.70-8.69 116.99-8.98L116.99-8.98L116.99-8.98Q118.16-10.16 118.63-10.69L118.63-10.69L118.63-10.69Q119.09-11.23 119.24-11.43L119.24-11.43L119.24-11.43Q119.38-11.62 119.41-11.60L119.41-11.60L119.41-11.60Q119.43-11.57 119.68-11.57L119.68-11.57L119.68-11.57Q120.07-11.57 120.24-11.21L120.24-11.21L120.24-11.21Q120.41-10.84 120.56-10.60L120.56-10.60L120.56-10.60Q120.46-10.50 120.46-10.30L120.46-10.30L120.46-10.30Q120.46-10.11 120.36-9.96L120.36-9.96L120.36-9.96Q120.26-9.81 120.07-9.67L120.07-9.67L120.07-9.67Q119.87-9.52 119.73-9.33L119.73-9.33L119.24-8.74L119.24-8.74Q118.65-8.15 118.24-7.47L118.24-7.47L118.24-7.47Q117.82-6.79 117.43-6.13L117.43-6.13L117.43-6.13Q117.04-5.47 116.65-4.91L116.65-4.91L116.65-4.91Q116.26-4.35 115.77-4.05L115.77-4.05L115.77-4.05Q114.45-3.22 113.70-2.29L113.70-2.29L113.70-2.29Q112.94-1.37 112.01-0.83L112.01-0.83L112.01-0.83Q111.91-0.83 111.89-0.85L111.89-0.85L111.89-0.85Q111.87-0.88 111.82-0.88L111.82-0.88L111.82-0.88Q111.62-0.88 111.50-0.78L111.50-0.78L111.50-0.78Q111.38-0.68 111.23-0.68L111.23-0.68L111.23-0.68Q110.84-0.83 110.55-0.95L110.55-0.95L110.55-0.95Q110.25-1.07 109.94-1.32L109.94-1.32L109.94-1.32Q109.62-1.56 109.25-2.03L109.25-2.03L109.25-2.03Q108.89-2.49 108.40-3.32L108.40-3.32L108.40-3.32Q108.15-3.71 108.01-4.13L108.01-4.13L108.01-4.13Q107.86-4.54 107.62-4.98L107.62-4.98L107.62-4.98Q107.23-5.71 106.96-6.18L106.96-6.18L106.96-6.18Q106.69-6.64 106.69-7.81L106.69-7.81L106.69-7.81Q106.69-8.30 106.79-9.28L106.79-9.28L106.79-9.28Q106.88-10.25 106.98-10.84L106.98-10.84L106.98-10.84Q106.20-10.06 105.59-8.96L105.59-8.96L105.59-8.96Q104.98-7.86 104.39-6.93L104.39-6.93L104.39-6.93Q103.56-5.66 102.71-4.57L102.71-4.57L102.71-4.57Q101.86-3.47 101.81-2.83L101.81-2.83L101.81-2.83Q101.51-2.54 101.27-2.15L101.27-2.15L101.27-2.15Q101.03-1.76 100.85-1.44L100.85-1.44L100.85-1.44Q100.68-1.12 100.61-0.90L100.61-0.90L100.61-0.90Q100.54-0.68 100.63-0.78L100.63-0.78L100.63-0.78Q99.95 0.34 98.66 0.81L98.66 0.81L98.66 0.81Q97.36 1.27 96.24 1.27L96.24 1.27L96.24 1.27Q95.80 1.22 95.36 1.17L95.36 1.17L95.36 1.17Q94.92 1.12 94.53 0.83L94.53 0.83L93.80 0.29L93.80 0.29Q93.02-0.10 92.72-0.93L92.72-0.93L92.72-0.93Q92.43-1.76 92.43-2.73L92.43-2.73L92.43-2.73Q93.02-4.25 93.14-5.49L93.14-5.49L93.14-5.49Q93.26-6.74 93.70-7.86L93.70-7.86L93.70-7.86Q94.38-9.67 95.63-11.08L95.63-11.08L95.63-11.08Q96.88-12.50 98.24-13.67L98.24-13.67L98.24-13.67Q99.61-14.84 100.85-15.77L100.85-15.77L100.85-15.77Q102.10-16.70 102.83-17.58L102.83-17.58L102.83-17.58Q103.17-17.63 103.61-17.87L103.61-17.87L103.61-17.87Q104.05-18.12 104.54-18.38L104.54-18.38L104.54-18.38Q105.03-18.65 105.54-18.85L105.54-18.85L105.54-18.85Q106.05-19.04 106.59-19.04L106.59-19.04L106.59-19.04Q107.18-19.04 107.50-18.90L107.50-18.90L107.50-18.90Q107.81-18.75 108.01-18.53L108.01-18.53L108.01-18.53Q108.20-18.31 108.28-18.07L108.28-18.07L108.28-18.07Q108.35-17.82 108.50-17.58L108.50-17.58L108.50-17.58Q108.79-18.36 108.98-19.21L108.98-19.21L108.98-19.21Q109.18-20.07 109.52-20.75L109.52-20.75L109.52-20.75Q109.81-22.27 110.52-23.97L110.52-23.97L110.52-23.97Q111.23-25.68 111.94-27.12L111.94-27.12L111.94-27.12Q112.65-28.56 113.21-29.57L113.21-29.57L113.21-29.57Q113.77-30.57 113.87-30.71L113.87-30.71L113.87-30.71Q114.60-31.84 115.50-32.69L115.50-32.69L115.50-32.69Q116.41-33.54 116.99-34.42L116.99-34.42L116.99-34.42Q117.48-34.96 117.94-35.77L117.94-35.77L117.94-35.77Q118.41-36.57 118.70-36.77L118.70-36.77L118.70-36.77Q119.43-36.57 119.78-36.21L119.78-36.21L119.78-36.21Q120.12-35.84 120.21-35.45L120.21-35.45L120.21-35.45Q120.31-35.06 120.26-34.67L120.26-34.67L120.26-34.67Q120.21-34.28 120.21-34.08L120.21-34.08L120.21-34.08Q120.21-33.30 120.07-32.52L120.07-32.52L118.41-29.05L118.41-29.05Q117.72-27.78 117.11-26.46L117.11-26.46L117.11-26.46Q116.50-25.15 115.97-23.78L115.97-23.78L115.97-23.78Q115.04-22.02 113.99-20.70L113.99-20.70L113.99-20.70Q112.94-19.38 112.06-17.87L112.06-17.87L112.06-17.87Q111.87-17.33 111.55-16.87L111.55-16.87L111.55-16.87Q111.23-16.41 110.94-15.92L110.94-15.92L110.06-13.82L110.06-13.82Q109.77-13.43 109.77-13.09L109.77-13.09L109.77-13.09Q109.86-12.84 109.86-12.70L109.86-12.70L109.86-12.70Q109.86-12.55 109.86-12.45L109.86-12.45L109.86-12.45Q109.86-12.01 109.84-11.57L109.84-11.57L109.84-11.57Q109.81-11.13 109.81-10.64L109.81-10.64L109.81-10.64Q109.81-9.38 109.86-8.13L109.86-8.13L109.86-8.13Q109.91-6.88 110.01-5.76L110.01-5.76L110.01-5.76Q109.91-5.57 109.91-5.52L109.91-5.52L109.91-5.52Q109.91-5.18 110.28-4.81L110.28-4.81L110.28-4.81Q110.64-4.44 110.74-4.20ZM106.05-16.06L106.05-16.06L104.83-15.28L104.83-15.28Q104.44-15.14 103.86-14.58L103.86-14.58L103.86-14.58Q103.27-14.01 102.83-13.62L102.83-13.62L101.81-12.70L101.81-12.70Q101.46-12.06 100.88-11.62L100.88-11.62L100.88-11.62Q100.29-11.18 99.90-10.64L99.90-10.64L99.90-10.64Q99.37-9.96 98.85-9.03L98.85-9.03L98.85-9.03Q98.34-8.11 98.39-7.47L98.39-7.47L98.39-7.47Q98.14-6.59 97.85-5.96L97.85-5.96L97.85-5.96Q97.56-5.32 97.56-4.54L97.56-4.54L97.56-4.54Q97.56-3.91 97.97-3.88L97.97-3.88L97.97-3.88Q98.39-3.86 98.58-3.86L98.58-3.86L98.58-3.86Q99.17-4.25 99.78-4.91L99.78-4.91L99.78-4.91Q100.39-5.57 100.95-6.27L100.95-6.27L100.95-6.27Q101.51-6.98 101.93-7.67L101.93-7.67L101.93-7.67Q102.34-8.35 102.54-8.89L102.54-8.89L102.54-8.89Q103.08-9.81 103.76-10.86L103.76-10.86L103.76-10.86Q104.44-11.91 105.27-12.74L105.27-12.74L106.54-14.79L106.54-14.79Q106.64-15.04 106.74-15.23L106.74-15.23L106.74-15.23Q106.84-15.43 106.84-15.67L106.84-15.67L106.84-15.67Q106.84-16.02 106.64-16.26L106.64-16.26L106.64-16.26Q106.45-16.26 106.30-16.19L106.30-16.19L106.30-16.19Q106.15-16.11 106.05-16.06ZM131.15-13.57L131.10-13.18L131.10-13.18Q131.15-13.04 131.01-12.60L131.01-12.60L131.01-12.60Q130.76-12.30 130.71-11.96L130.71-11.96L130.71-11.96Q130.62-11.77 130.54-11.62L130.54-11.62L130.54-11.62Q130.47-11.47 130.42-11.23L130.42-11.23L130.42-11.23Q130.32-10.94 130.35-10.55L130.35-10.55L130.35-10.55Q130.37-10.16 130.32-9.81L130.32-9.81L130.32-9.81Q130.22-9.28 130.18-8.76L130.18-8.76L130.18-8.76Q130.13-8.25 130.08-7.71L130.08-7.71L130.08-7.71Q130.08-7.18 129.98-6.49L129.98-6.49L129.98-6.49Q129.88-5.81 129.79-5.27L129.79-5.27L129.79-5.27Q129.98-4.93 130.03-4.54L130.03-4.54L130.03-4.54Q130.08-4.15 130.37-3.91L130.37-3.91L130.37-3.91Q131.35-4.05 131.93-4.37L131.93-4.37L131.93-4.37Q132.52-4.69 133.06-5.27L133.06-5.27L133.06-5.27Q133.50-5.47 133.67-5.62L133.67-5.62L133.67-5.62Q133.84-5.76 134.23-6.01L134.23-6.01L134.23-6.01Q134.33-6.10 134.42-6.20L134.42-6.20L134.42-6.20Q134.52-6.30 134.62-6.40L134.62-6.40L134.62-6.40Q135.16-6.69 135.28-6.79L135.28-6.79L135.28-6.79Q135.40-6.88 135.60-6.98L135.60-6.98L135.60-6.98Q136.43-7.52 136.87-8.11L136.87-8.11L136.87-8.11Q137.30-8.45 137.48-8.72L137.48-8.72L137.48-8.72Q137.65-8.98 138.23-9.23L138.23-9.23L138.23-9.23Q138.57-9.62 138.94-9.89L138.94-9.89L138.94-9.89Q139.31-10.16 139.65-10.55L139.65-10.55L139.65-10.55Q139.89-10.55 140.04-10.45L140.04-10.45L140.04-10.45Q140.19-10.35 140.38-10.25L140.38-10.25L140.38-10.25Q140.53-9.86 140.43-9.45L140.43-9.45L140.43-9.45Q140.33-9.03 140.09-8.69L140.09-8.69L140.09-8.69Q139.84-8.35 139.84-8.30L139.84-8.30L139.84-8.30Q139.84-8.25 139.79-8.20L139.79-8.20L139.79-8.20Q139.65-8.01 139.43-7.84L139.43-7.84L139.43-7.84Q139.21-7.67 139.06-7.47L139.06-7.47L139.06-7.47Q138.82-7.03 138.67-7.03L138.67-7.03L138.67-7.03Q138.53-7.03 138.43-6.93L138.43-6.93L138.43-6.93Q137.99-6.69 137.82-6.54L137.82-6.54L137.82-6.54Q137.65-6.40 137.26-6.15L137.26-6.15L137.26-6.15Q136.72-5.86 136.62-5.76L136.62-5.76L136.62-5.76Q136.52-5.66 136.43-5.62L136.43-5.62L136.43-5.62Q135.79-4.93 135.28-4.52L135.28-4.52L135.28-4.52Q134.77-4.10 134.18-3.42L134.18-3.42L134.18-3.42Q133.98-3.27 133.79-3.13L133.79-3.13L133.79-3.13Q133.59-2.98 133.45-2.73L133.45-2.73L133.45-2.73Q133.01-2.44 132.74-2.15L132.74-2.15L132.74-2.15Q132.47-1.86 132.13-1.46L132.13-1.46L132.13-1.46Q131.84-1.32 131.49-1.05L131.49-1.05L131.49-1.05Q131.15-0.78 130.76-0.59L130.76-0.59L130.76-0.59Q130.57-0.49 130.35-0.37L130.35-0.37L130.35-0.37Q130.13-0.24 129.88-0.24L129.88-0.24L129.88-0.24Q129.30-0.15 128.81-0.34L128.81-0.34L128.81-0.34Q128.32-0.54 127.88-0.63L127.88-0.63L127.88-0.63Q127.69-0.93 127.39-1.12L127.39-1.12L127.39-1.12Q126.95-1.66 126.76-2.39L126.76-2.39L126.76-2.39Q126.56-3.13 126.37-3.96L126.37-3.96L126.37-3.96Q125.98-3.71 125.63-3.32L125.63-3.32L125.63-3.32Q125.29-2.93 124.76-2.69L124.76-2.69L124.76-2.69Q123.78-1.76 122.68-0.90L122.68-0.90L122.68-0.90Q121.58-0.05 120.46 0.88L120.46 0.88L120.46 0.88Q120.31 1.03 120.17 1.12L120.17 1.12L120.17 1.12Q120.02 1.22 119.92 1.17L119.92 1.17L119.92 1.17Q119.68 1.46 119.26 1.54L119.26 1.54L119.26 1.54Q118.85 1.61 118.36 1.51L118.36 1.51L118.36 1.51Q117.87 1.27 117.48 1.17L117.48 1.17L117.48 1.17Q117.09 1.07 116.70 0.88L116.70 0.88L116.70 0.88Q115.87 0.73 115.31 0.15L115.31 0.15L115.31 0.15Q114.75-0.44 114.36-1.22L114.36-1.22L114.36-1.22Q114.21-1.61 114.14-1.95L114.14-1.95L114.14-1.95Q114.06-2.29 113.96-2.73L113.96-2.73L113.96-2.73Q113.92-3.13 113.82-3.39L113.82-3.39L113.82-3.39Q113.72-3.66 113.82-3.91L113.82-3.91L113.82-3.91Q113.72-4.05 113.77-4.22L113.77-4.22L113.77-4.22Q113.82-4.39 113.82-4.59L113.82-4.59L113.82-4.59Q113.77-5.27 113.94-6.05L113.94-6.05L113.94-6.05Q114.11-6.84 114.40-7.47L114.40-7.47L114.40-7.47Q114.50-7.67 114.79-7.96L114.79-7.96L114.79-7.96Q114.89-8.11 114.94-8.25L114.94-8.25L114.94-8.25Q114.99-8.40 115.09-8.50L115.09-8.50L115.09-8.50Q115.19-8.64 115.38-8.79L115.38-8.79L115.38-8.79Q115.58-8.94 115.72-9.08L115.72-9.08L115.72-9.08Q115.97-9.42 116.28-9.69L116.28-9.69L116.28-9.69Q116.60-9.96 116.89-10.25L116.89-10.25L116.89-10.25Q117.04-10.40 117.16-10.60L117.16-10.60L117.16-10.60Q117.29-10.79 117.53-10.89L117.53-10.89L117.53-10.89Q117.72-11.23 117.97-11.45L117.97-11.45L117.97-11.45Q118.21-11.67 118.51-11.91L118.51-11.91L118.51-11.91Q119.34-12.94 120.56-13.62L120.56-13.62L120.56-13.62Q121.78-14.31 122.75-15.19L122.75-15.19L122.75-15.19Q123.10-15.33 123.34-15.53L123.34-15.53L123.34-15.53Q123.58-15.72 123.83-15.92L123.83-15.92L123.83-15.92Q124.46-16.46 125.15-16.26L125.15-16.26L125.15-16.26Q125.83-16.06 126.42-15.92L126.42-15.92L126.42-15.92Q126.90-15.48 127.37-15.04L127.37-15.04L127.37-15.04Q127.83-14.60 128.17-14.06L128.17-14.06L128.17-14.06Q128.52-14.11 128.96-14.09L128.96-14.09L128.96-14.09Q129.39-14.06 129.88-14.16L129.88-14.16L129.88-14.16Q130.03-14.16 130.18-14.23L130.18-14.23L130.18-14.23Q130.32-14.31 130.42-14.31L130.42-14.31L130.42-14.31Q131.15-14.06 131.15-13.57L131.15-13.57ZM124.71-12.84L124.71-12.84L124.71-12.84Q123.39-12.21 122.31-11.35L122.31-11.35L122.31-11.35Q121.24-10.50 120.26-9.52L120.26-9.52L120.26-9.52Q120.02-9.28 119.75-9.06L119.75-9.06L119.75-9.06Q119.48-8.84 119.29-8.59L119.29-8.59L119.29-8.59Q119.09-8.35 118.92-8.01L118.92-8.01L118.92-8.01Q118.75-7.67 118.60-7.37L118.60-7.37L118.60-7.37Q118.51-7.18 118.41-7.06L118.41-7.06L118.41-7.06Q118.31-6.93 118.21-6.79L118.21-6.79L118.21-6.79Q118.12-6.54 118.14-6.30L118.14-6.30L118.14-6.30Q118.16-6.05 118.16-5.76L118.16-5.76L118.16-5.76Q118.16-5.52 118.16-5.27L118.16-5.27L118.16-5.27Q118.16-5.03 118.21-4.79L118.21-4.79L118.21-4.79Q118.36-4.25 118.36-3.71L118.36-3.71L118.36-3.71Q118.36-3.32 118.43-2.76L118.43-2.76L118.43-2.76Q118.51-2.20 118.80-2.00L118.80-2.00L118.80-2.00Q119.09-1.81 119.41-1.90L119.41-1.90L119.41-1.90Q119.73-2.00 119.97-2.05L119.97-2.05L119.97-2.05Q121.68-3.37 123.19-4.81L123.19-4.81L123.19-4.81Q124.71-6.25 125.88-8.06L125.88-8.06L125.88-8.06Q125.78-9.33 125.85-10.52L125.85-10.52L125.85-10.52Q125.93-11.72 125.63-12.74L125.63-12.74L125.63-12.74Q125.44-12.84 125.17-12.82L125.17-12.82L125.17-12.82Q124.90-12.79 124.71-12.84ZM141.36-7.42L141.65-7.18L141.65-7.18Q141.75-6.98 141.58-6.64L141.58-6.64L141.58-6.64Q141.41-6.30 141.31-6.05L141.31-6.05L141.31-6.05Q141.36-5.86 141.41-5.74L141.41-5.74L141.41-5.74Q141.46-5.62 141.36-5.42L141.36-5.42L141.36-5.42Q141.70-5.18 141.80-4.86L141.80-4.86L141.80-4.86Q141.89-4.54 142.14-4.20L142.14-4.20L142.14-4.20Q142.38-3.91 142.65-3.71L142.65-3.71L142.65-3.71Q142.92-3.52 143.16-3.27L143.16-3.27L143.16-3.27Q143.41-3.42 143.55-3.42L143.55-3.42L143.55-3.42Q143.70-3.42 143.95-3.52L143.95-3.52L143.95-3.52Q144.38-4.10 144.63-4.88L144.63-4.88L144.63-4.88Q144.68-5.08 144.73-5.32L144.73-5.32L144.73-5.32Q144.78-5.57 144.78-5.76L144.78-5.76L144.78-5.76Q144.73-6.45 144.38-7.08L144.38-7.08L144.38-7.08Q144.04-7.71 143.85-8.40L143.85-8.40L143.85-8.40Q143.65-8.79 143.73-9.28L143.73-9.28L143.73-9.28Q143.80-9.77 143.70-10.16L143.70-10.16L143.70-10.16Q143.65-10.40 143.55-10.55L143.55-10.55L143.55-10.55Q143.46-10.69 143.36-10.89L143.36-10.89L143.36-10.89Q143.26-11.28 143.29-11.77L143.29-11.77L143.29-11.77Q143.31-12.26 143.07-12.60L143.07-12.60L143.07-12.60Q142.87-12.40 142.43-11.87L142.43-11.87L142.43-11.87Q141.99-11.33 141.50-10.69L141.50-10.69L141.50-10.69Q141.02-10.06 140.60-9.52L140.60-9.52L140.60-9.52Q140.19-8.98 139.99-8.79L139.99-8.79L139.99-8.79Q139.75-8.45 139.45-8.18L139.45-8.18L139.45-8.18Q139.16-7.91 138.92-7.57L138.92-7.57L138.92-7.57Q138.72-7.32 138.26-6.76L138.26-6.76L138.26-6.76Q137.79-6.20 137.30-5.57L137.30-5.57L137.30-5.57Q136.82-4.93 136.40-4.37L136.40-4.37L136.40-4.37Q135.99-3.81 135.84-3.61L135.84-3.61L135.84-3.61Q135.74-3.47 135.33-2.88L135.33-2.88L135.33-2.88Q134.91-2.29 134.40-1.61L134.40-1.61L134.40-1.61Q133.89-0.93 133.47-0.34L133.47-0.34L133.47-0.34Q133.06 0.24 132.96 0.44L132.96 0.44L132.96 0.44Q132.67 0.93 132.20 1.29L132.20 1.29L132.20 1.29Q131.74 1.66 131.10 1.66L131.10 1.66L131.10 1.66Q131.05 1.61 131.01 1.39L131.01 1.39L131.01 1.39Q130.96 1.17 130.93 0.93L130.93 0.93L130.93 0.93Q130.91 0.68 130.83 0.46L130.83 0.46L130.83 0.46Q130.76 0.24 130.71 0.15L130.71 0.15L130.71 0.15Q130.86-0.15 130.93-0.44L130.93-0.44L130.93-0.44Q131.01-0.73 131.35-0.98L131.35-0.98L131.35-0.98Q131.45-1.32 131.93-2.08L131.93-2.08L131.93-2.08Q132.42-2.83 133.01-3.66L133.01-3.66L133.01-3.66Q133.59-4.49 134.11-5.22L134.11-5.22L134.11-5.22Q134.62-5.96 134.81-6.25L134.81-6.25L134.81-6.25Q135.01-6.45 135.45-6.98L135.45-6.98L135.45-6.98Q135.89-7.52 136.33-8.13L136.33-8.13L136.33-8.13Q136.77-8.74 137.18-9.28L137.18-9.28L137.18-9.28Q137.60-9.81 137.79-10.06L137.79-10.06L137.79-10.06Q137.94-10.50 138.43-11.25L138.43-11.25L138.43-11.25Q138.92-12.01 139.50-12.82L139.50-12.82L139.50-12.82Q140.09-13.62 140.65-14.36L140.65-14.36L140.65-14.36Q141.21-15.09 141.50-15.53L141.50-15.53L141.50-15.53Q141.75-15.92 141.92-16.21L141.92-16.21L141.92-16.21Q142.09-16.50 142.29-16.85L142.29-16.85L142.29-16.85Q142.38-16.94 142.48-17.07L142.48-17.07L142.48-17.07Q142.58-17.19 142.63-17.29L142.63-17.29L142.63-17.29Q142.72-17.68 142.53-17.85L142.53-17.85L142.53-17.85Q142.33-18.02 142.38-18.36L142.38-18.36L142.38-18.36Q142.77-19.14 143.24-19.41L143.24-19.41L143.24-19.41Q143.70-19.68 144.09-20.21L144.09-20.21L144.09-20.21Q144.34-20.41 144.56-20.51L144.56-20.51L144.56-20.51Q144.78-20.61 145.02-20.85L145.02-20.85L145.02-20.85Q145.21-21.04 145.51-21.07L145.51-21.07L145.51-21.07Q145.80-21.09 146.07-21.02L146.07-21.02L146.07-21.02Q146.34-20.95 146.56-20.83L146.56-20.83L146.56-20.83Q146.78-20.70 146.83-20.61L146.83-20.61L146.83-20.61Q146.88-20.46 146.83-20.21L146.83-20.21L146.83-20.21Q146.78-19.97 146.73-19.73L146.73-19.73L146.73-19.73Q146.63-19.29 146.53-18.92L146.53-18.92L146.53-18.92Q146.44-18.55 146.34-18.12L146.34-18.12L146.34-18.12Q146.24-17.58 146.17-17.09L146.17-17.09L146.17-17.09Q146.09-16.60 146.48-16.16L146.48-16.16L146.48-16.16Q146.44-15.92 146.51-15.58L146.51-15.58L146.51-15.58Q146.58-15.23 146.68-14.94L146.68-14.94L146.68-14.94Q146.78-13.38 147.24-11.84L147.24-11.84L147.24-11.84Q147.71-10.30 148.24-9.03L148.24-9.03L148.24-9.03Q148.24-8.79 148.32-8.54L148.32-8.54L148.32-8.54Q148.39-8.30 148.49-8.06L148.49-8.06L148.49-8.06Q148.63-6.49 148.19-4.96L148.19-4.96L148.19-4.96Q147.75-3.42 147.36-1.95L147.36-1.95L147.36-1.95Q147.07-1.46 146.88-0.83L146.88-0.83L146.88-0.83Q146.78-0.54 146.68-0.34L146.68-0.34L146.68-0.34Q146.58-0.15 146.39 0.10L146.39 0.10L146.39 0.10Q146.14 0.49 145.95 0.98L145.95 0.98L145.95 0.98Q145.75 1.46 145.17 1.76L145.17 1.76L145.17 1.76Q144.82 1.86 144.51 1.76L144.51 1.76L144.51 1.76Q144.19 1.66 143.90 1.76L143.90 1.76L143.90 1.76Q143.65 1.81 143.46 1.88L143.46 1.88L143.46 1.88Q143.26 1.95 143.07 1.95L143.07 1.95L143.07 1.95Q142.43 2.05 142.02 1.83L142.02 1.83L142.02 1.83Q141.60 1.61 141.02 1.51L141.02 1.51L141.02 1.51Q141.02 1.37 140.87 1.29L140.87 1.29L140.87 1.29Q140.72 1.22 140.63 1.12L140.63 1.12L140.63 1.12Q140.43 0.34 140.23 0L140.23 0L140.23 0Q140.04-0.34 139.94-0.73L139.94-0.73L139.94-0.73Q139.79-1.27 139.79-1.78L139.79-1.78L139.79-1.78Q139.79-2.29 139.55-2.83L139.55-2.83L139.55-2.83Q139.36-3.22 139.38-3.37L139.38-3.37L139.38-3.37Q139.40-3.52 139.40-3.66L139.40-3.66L139.40-3.66Q139.40-4.30 139.33-5.05L139.33-5.05L139.33-5.05Q139.26-5.81 139.94-6.30L139.94-6.30L139.94-6.30Q140.19-6.49 140.31-6.81L140.31-6.81L140.31-6.81Q140.43-7.13 140.72-7.37L140.72-7.37L140.72-7.37Q140.82-7.47 141.04-7.47L141.04-7.47L141.04-7.47Q141.26-7.47 141.36-7.42L141.36-7.42Z" fill="url(#editing-glowing-gradient)"></path></g></g><style>text {
  font-size: 64px;
  font-family: Arial Black;
  dominant-baseline: central;
  text-anchor: middle;
}</style></svg>